<svg version="1.2" xmlns="http://www.w3.org/2000/svg" viewBox="0 0 200 100" width="200" height="100">
	<style>
		.s0 { fill: #ffffff } 
		.s1 { fill: #000000 } 
		.s2 { fill: #ffff00 } 
	</style>
	<path id="Background" class="s0" d=""/>
	<path id="Layer 1" class="s0" d=""/>
	<path id="Form 1" fill-rule="evenodd" class="s1" d="m100 100c-27.65 0-50-22.35-50-50 0-27.65 22.35-50 50-50 27.65 0 50 22.35 50 50 0 27.65-22.35 50-50 50z"/>
	<path id="Form 1 copy" fill-rule="evenodd" class="s1" d="m100 100c-27.65 0-50-22.35-50-50 0-27.65 22.35-50 50-50 27.65 0 50 22.35 50 50 0 27.65-22.35 50-50 50z"/>
	<path id="Form 2" fill-rule="evenodd" class="s2" d="m100 100c-8.3 0-15-22.35-15-50 0-27.65 6.7-50 15-50 8.3 0 15 22.35 15 50 0 27.65-6.7 50-15 50z"/>
</svg>